<svg xmlns="http://www.w3.org/2000/svg" width="184.619" height="50.188" viewBox="0 0 16489 4482" shape-rendering="geometricPrecision" text-rendering="geometricPrecision" image-rendering="optimizeQuality" fill-rule="evenodd" clip-rule="evenodd"><defs><style>.fil1{fill:#1a1a1a;fill-rule:nonzero}.fil0{fill:url(#id0)}</style><linearGradient id="id0" gradientUnits="userSpaceOnUse" x1="744.683" y1="2238.77" x2="4220.03" y2="2238.77"><stop offset="0" stop-color="#91d8f7"/><stop offset="1" stop-color="#cdf505"/></linearGradient></defs><g id="Слой_x0020_1"><path class="fil0" d="M1722 4425c-469-80-886-247-1163-514C211 3575 0 3054 0 2239S211 903 559 567c270-260 688-428 1163-509v448C723 571 413 1215 413 2239s310 1672 1309 1737v449zm3243-2183c0 1719-1315 2306-2766 2235v-493c1045 4 1813-46 1813-1742 0-1648-986-1742-1813-1742V7c1454-77 2766 516 2766 2235z"/><path class="fil1" d="M6233 3755l66-160h372l66 160h127l-313-742h-132l-314 742h128zM1979 1766c-28 0-45 18-45 44v300c0 5 4 9 9 9h231c2 0 4 2 4 4v643c0 358 241 488 521 488 143 0 275-24 385-62 2-1 3-2 3-4v-328c0-1-1-3-2-3-1-1-3-1-4 0-82 31-162 46-256 46-157 0-232-66-232-217v-562c0-2 2-4 4-4h449c2 0 4-2 4-4v-344c0-2-2-4-4-4h-432c-12 0-21-10-21-21v-441c0-12-10-21-21-21h-217c-175 0-87 484-376 484zm-209 34c0-19-15-34-34-34h-128c-141 0-256 115-256 256v1153c0 24 19 43 43 43h153c150 0 222-100 222-222V1800zm13-351c0-147-103-212-223-212-117 0-220 65-220 212 0 150 103 215 220 215 120 0 223-65 223-215zm4594 1061l91-230h561l89 230h272l-500-1228h-284l-502 1228h272zm344-887c11-25 19-49 28-96 9 47 18 72 26 96l172 440h-396l170-440zm1022 887v-333h98l242 333h274l-314-426 289-416h-274l-214 314h-102v-314h-244v842h244zm1459-217v-268c0-277-161-381-414-381-130 0-258 33-326 56v210c79-32 182-63 298-63 132 0 198 58 198 142v30c-60-14-133-23-200-23-168 0-370 67-370 281 0 167 137 258 295 258 125 0 221-39 303-103 35 63 100 95 186 95 47 0 96-11 135-25v-160c-16 5-32 7-46 7-32 0-60-12-60-56zm-388-151c51 0 107 11 144 19v132c-56 49-121 68-189 68-74 0-132-40-132-103 0-86 88-116 177-116zm780 591v-223h610v223h224v-409h-126v-656h-693c5 267-21 479-123 656h-118v409h225zm240-879h226v470h-321c63-137 88-272 95-470zm679 235c0 293 221 445 488 445 126 0 230-19 309-53v-191c-72 32-158 51-254 51-139 0-268-51-296-174h593c56-249-56-524-405-524-189 0-433 128-433 445zm619-79h-375c4-116 95-181 198-181 153 0 186 123 177 181zm621 500v-496l198 314h121l198-314v496h235v-842h-231l-263 417-261-417h-233v842h237zm1172 0l375-473v473h242v-842h-210l-375 474v-474h-244v842h212zm1024 0l188-251h137v251h244v-842h-456c-221 0-337 137-337 295 0 114 58 216 172 265l-221 282h274zm23-540c0-70 51-109 139-109h163v216h-163c-88 0-139-39-139-107zM6470 3172c4-12 8-23 14-41 5 18 10 30 14 41l130 317h-288l130-317zm673 171h172v412h113v-509h-392c-10 252-33 422-119 422-11 0-21-2-33-6v89c25 10 49 14 70 14 136 0 174-176 189-422zm395 158c0 179 132 268 288 268 71 0 136-13 182-35v-98c-43 21-100 36-161 36-93 0-182-38-195-129h382c33-147-37-310-239-310-118 0-257 84-257 268zm395-42h-282c4-86 73-131 149-131 111 0 139 87 132 131zm328 297v-211h82l167 211h130l-204-256 184-252h-129l-146 201h-84v-201h-113v509h113zm396-250c0 181 139 264 274 264 65 0 120-12 168-35v-105c-40 23-94 39-148 39-91 0-179-52-179-167 0-120 91-167 181-167 52 0 104 16 141 42v-104c-44-27-100-39-157-39-136 0-281 83-281 272zm516-4c0 179 132 268 288 268 71 0 136-13 182-35v-98c-43 21-100 36-161 36-93 0-182-38-195-129h382c33-147-37-310-239-310-118 0-257 84-257 268zm395-42h-282c4-86 73-131 149-131 111 0 139 87 132 131zm300 297l126-166h115v166h113v-509h-263c-127 0-196 79-196 172 0 70 39 132 113 158l-140 179h130zm12-336c0-50 37-78 100-78h130v157h-130c-63 0-100-29-100-78zm709-29c-1 253 202 378 394 378 78 0 153-18 215-49v-120c-49 37-118 57-194 57-142 0-292-85-292-267 1-196 148-280 290-280 70 0 139 19 191 55v-118c-64-32-137-49-211-49-195 0-393 127-393 391zm921 239l-172-384h-121l242 513-11 25c-30 79-71 119-126 119-17 0-35-2-52-7v96c22 5 45 9 67 9 77 0 149-44 204-177l238-577h-119l-152 384zm676-384l-122 172-122-172h-129l185 249-196 260h129l132-180 132 180h129l-196-260 185-249h-129zm162 254c0 176 134 268 276 268 143 0 275-92 275-268s-132-268-275-268c-142 0-276 92-276 268zm436 0c0 100-66 164-160 164-95 0-161-65-161-164 0-100 66-164 161-164 94 0 160 65 160 164zm326-175v-79h-101v742h113v-299c35 40 94 79 183 79 153 0 252-122 252-268s-100-268-252-268c-95 0-156 44-196 93zm333 175c0 100-66 168-158 168-78 0-138-51-162-107v-124c24-55 84-106 162-106 92 0 158 69 158 168zm434 129l-172-384h-121l242 513-11 25c-30 79-71 119-126 119-17 0-35-2-52-7v96c22 5 45 9 67 9 77 0 149-44 204-177l238-577h-119l-152 384zm468 125v-211h82l167 211h130l-204-256 184-252h-129l-146 201h-84v-201h-113v509h113zm396-254c0 176 134 268 276 268 143 0 275-92 275-268s-132-268-275-268c-142 0-276 92-276 268zm436 0c0 100-66 164-160 164-95 0-161-65-161-164 0-100 66-164 161-164 94 0 160 65 160 164zm524 254c118 0 167-61 167-140 0-63-39-103-87-118 43-19 72-59 72-115 0-80-58-136-161-136h-290v509h299zm-185-216h160c39 0 78 14 78 66 0 49-34 65-81 65h-158v-130zm0-207h152c35 0 72 15 72 65 0 46-32 62-72 62h-152v-126zm901 305v-182c0-154-91-223-235-223-82 0-155 20-195 34v104c46-20 108-39 183-39 87 0 134 44 134 108v18c-40-8-89-15-132-15-106 0-227 40-227 171 0 105 86 156 178 156 79 0 142-25 192-66 18 41 55 59 102 59 25 0 51-4 72-13v-82c-11 3-22 6-34 6-20 0-37-8-37-37zm-224-116c36 0 79 6 110 13v86c-40 40-93 60-147 60-51 0-95-25-95-75 0-64 68-84 132-84z"/></g></svg>